<svg xmlns="http://www.w3.org/2000/svg" width="166" height="91" viewBox="0 0 166 91" version="1.1"><path d="M 59.300 2.646 C 58.437 2.996, 58.375 3.855, 59.078 5.705 C 59.616 7.120, 59.931 8.346, 59.778 8.429 C 59.625 8.512, 58.164 9.018, 56.531 9.553 C 54.898 10.089, 52.873 11.758, 52.031 13.263 C 50.655 15.723, 50.656 16.279, 52.044 18.750 C 53.398 21.160, 54.201 21.505, 58.544 21.544 C 65.722 21.607, 65.776 21.561, 64.894 16.206 C 64.468 13.618, 64.092 9.363, 64.060 6.750 C 63.999 1.949, 63.043 1.124, 59.300 2.646 M 111.299 5.503 C 107.900 7.884, 106.603 13.114, 108.366 17.334 C 110.082 21.440, 112.547 23, 117.323 23 C 123.874 23, 127.834 16.789, 125.619 9.989 C 123.834 4.507, 116.156 2.101, 111.299 5.503 M 114.034 6.459 C 112.246 8.614, 113.166 18.595, 115.355 20.784 C 118.122 23.550, 120.450 21.229, 120.759 15.397 C 121.168 7.684, 117.292 2.533, 114.034 6.459 M 99.500 7.783 C 97.851 9.199, 97.553 10.508, 97.800 15.243 C 98.066 20.351, 98.365 21.053, 100.493 21.588 C 103.063 22.233, 105 21.499, 105 19.882 C 105 19.332, 104.547 19.162, 103.993 19.504 C 103.439 19.847, 102.715 19.420, 102.383 18.556 C 101.567 16.430, 102.879 9.807, 103.981 10.489 C 104.466 10.788, 105.144 10.575, 105.490 10.016 C 105.835 9.457, 105.416 9, 104.559 9 C 103.702 9, 103 8.325, 103 7.500 C 103 5.565, 101.989 5.647, 99.500 7.783 M 77.539 8.951 C 75.911 9.551, 75.626 10.467, 75.864 14.337 C 76.092 18.036, 75.825 19, 74.576 19 C 73.352 19, 73 17.884, 73 14 C 73 10.350, 72.617 9, 71.582 9 C 68.344 9, 67.360 10.096, 67.733 13.288 C 68.643 21.075, 68.422 20.854, 75.250 20.816 L 81.500 20.782 81.162 15.141 C 80.779 8.746, 80.302 7.931, 77.539 8.951 M 87.079 9.265 C 81.120 12.305, 82.782 21, 89.323 21 C 92.251 21, 95 19.567, 95 18.040 C 95 17.733, 93.537 17.485, 91.750 17.490 C 88.714 17.499, 88.480 17.253, 88.190 13.750 C 87.962 11.005, 88.266 10, 89.323 10 C 90.117 10, 91.002 10.900, 91.290 12 C 91.980 14.639, 95 14.619, 95 11.975 C 95 10.722, 94.023 9.579, 92.435 8.975 C 89.363 7.807, 90.004 7.773, 87.079 9.265 M 147 12 C 147 13.646, 147.518 14.065, 149.250 13.820 C 150.488 13.644, 151.500 12.825, 151.500 12 C 151.500 11.175, 150.488 10.356, 149.250 10.180 C 147.518 9.935, 147 10.354, 147 12 M 6.500 12.704 C 3.750 13.565, 2.061 14.470, 2.746 14.717 C 4.360 15.296, 8.392 28.537, 7.590 30.625 C 7.142 31.794, 7.408 32.057, 8.582 31.607 C 9.464 31.268, 11.262 30.721, 12.577 30.391 C 14.794 29.835, 14.860 29.638, 13.484 27.673 C 11.639 25.039, 11.605 24, 13.365 24 C 15.843 24, 20 19.927, 20 17.500 C 20 14.929, 15.746 10.956, 13.115 11.070 C 12.227 11.108, 9.250 11.844, 6.500 12.704 M 38 13 C 34.022 16.978, 36.924 24, 42.545 24 C 46.380 24, 50.353 19.569, 49.541 16.200 C 48.275 10.944, 41.840 9.160, 38 13 M 56.193 15.241 C 56.417 18.335, 56.973 19.573, 58.250 19.815 C 59.710 20.092, 60 19.389, 60 15.573 C 60 11.624, 59.719 11, 57.943 11 C 56.141 11, 55.923 11.528, 56.193 15.241 M 40.409 13.376 C 39.622 15.428, 41.744 21.688, 43.450 22.342 C 45.355 23.073, 45.921 19.977, 44.609 16.006 C 43.380 12.287, 41.322 10.998, 40.409 13.376 M 131.499 12.935 C 130.108 13.328, 129.395 14.527, 129.161 16.872 C 128.975 18.726, 128.256 22.432, 127.562 25.106 C 126.157 30.524, 126.327 31, 129.667 31 C 131.581 31, 132 30.473, 132 28.063 C 132 25.287, 132.185 25.156, 135.367 25.672 C 138.114 26.118, 139.034 25.789, 140.367 23.887 C 143.786 19.005, 141.239 12.221, 136.439 13.426 C 135.189 13.740, 134.016 13.631, 133.833 13.184 C 133.650 12.737, 132.600 12.625, 131.499 12.935 M 9 14.134 C 9 14.758, 9.527 17.026, 10.170 19.174 C 10.970 21.844, 11.841 22.986, 12.920 22.782 C 14.860 22.415, 15.516 17.832, 14.026 15.049 C 12.873 12.894, 9 12.189, 9 14.134 M 29.558 13.906 C 29.250 14.404, 28.211 14.624, 27.249 14.393 C 24.168 13.655, 22.794 15.328, 23.961 18.398 C 24.533 19.901, 25 22.459, 25 24.084 C 25 26.799, 25.222 26.985, 27.750 26.381 C 31.816 25.409, 32.167 25.025, 30.508 23.365 C 29.678 22.536, 29 20.484, 29 18.806 C 29 16.170, 29.210 15.929, 30.542 17.035 C 32.443 18.613, 34.571 16.931, 33.664 14.567 C 33.010 12.862, 30.457 12.451, 29.558 13.906 M 133.643 17.202 C 132.578 21.176, 132.920 24, 134.465 24 C 136.358 24, 138.214 20.513, 137.813 17.709 C 137.379 14.675, 134.416 14.315, 133.643 17.202 M 145.428 16.884 C 145.729 17.370, 145.356 19.821, 144.601 22.331 C 143.061 27.448, 143.278 28, 146.833 28 C 148.208 28, 149.080 27.747, 148.771 27.438 C 148.462 27.129, 148.778 24.429, 149.473 21.438 L 150.737 16 147.810 16 C 146.199 16, 145.128 16.398, 145.428 16.884 M 154.010 19.488 C 153.008 20.696, 153.088 21.097, 154.435 21.614 C 155.464 22.008, 156.618 21.538, 157.466 20.377 C 158.220 19.346, 159.154 18.820, 159.541 19.208 C 160.628 20.295, 157.731 29, 156.282 29 C 154.398 29, 154.721 26.269, 156.750 25.034 C 158.172 24.168, 157.844 24.018, 155 24.234 C 152.004 24.462, 151.500 24.860, 151.500 27 C 151.500 29.038, 152.054 29.560, 154.500 29.827 C 156.150 30.007, 157.928 30.569, 158.450 31.077 C 159.722 32.313, 163.281 32.263, 162.513 31.021 C 162.180 30.482, 162.467 28.173, 163.151 25.890 C 164.316 22.001, 164.249 21.620, 162.087 19.869 C 159.310 17.621, 155.701 17.450, 154.010 19.488 M 124.775 40.277 C 122.299 42.049, 116.299 47.212, 111.440 51.750 C 101.688 60.859, 98.109 62.798, 105.363 55.043 C 110.630 49.412, 111.060 48, 107.506 48 C 104.736 48, 100.791 52.702, 97.571 59.842 C 95.792 63.788, 95.462 64.010, 91.098 64.187 C 82.799 64.524, 70.621 63.939, 63.783 62.875 L 57.065 61.830 58.648 59.415 C 60.099 57.200, 60.882 57, 68.115 57 C 74.457 57, 76 56.707, 76 55.500 C 76 54.675, 75.250 54, 74.333 54 C 71.582 54, 73.610 52.818, 80.173 50.598 C 83.585 49.444, 86.542 47.976, 86.743 47.335 C 87.490 44.962, 82.995 44.922, 77.229 47.252 L 71.381 49.614 72.389 45.838 C 74.436 38.168, 70.801 40.340, 65.779 49.788 C 63.581 53.922, 63.366 54.053, 59.750 53.450 C 56.728 52.946, 56 53.133, 56 54.412 C 56 56.506, 55.416 56.416, 52.937 53.938 C 50.450 51.450, 48.619 51.841, 48.163 54.959 C 47.845 57.137, 47.506 57.233, 41.928 56.727 C 37.536 56.329, 33.051 54.760, 24.363 50.582 C 12.378 44.819, 8.087 43.693, 16.671 48.563 C 31.101 56.749, 38.812 63.521, 37.478 66.835 C 37.110 67.751, 36.594 69.022, 36.332 69.660 C 35.787 70.986, 39.470 72.446, 40.991 71.506 C 41.546 71.163, 42 71.310, 42 71.834 C 42 72.358, 41.325 73.045, 40.500 73.362 C 39.675 73.678, 39 74.605, 39 75.422 C 39 77.163, 45.416 80.479, 46.950 79.531 C 48.355 78.663, 48.297 75, 46.878 75 C 46.098 75, 46.132 74.546, 46.989 73.513 C 48.768 71.370, 47.477 69, 44.531 69 C 43.139 69, 42 68.550, 42 68 C 42 67.450, 42.481 67, 43.070 67 C 43.658 67, 43.995 65.987, 43.820 64.750 C 43.579 63.056, 42.838 62.500, 40.822 62.500 C 39.224 62.500, 36.908 61.319, 35.082 59.573 C 31.368 56.021, 31.658 55.424, 36.126 57.426 C 37.982 58.258, 42.744 59.866, 46.710 60.999 C 50.675 62.133, 54.272 63.610, 54.702 64.280 C 55.133 64.951, 56.041 68.178, 56.721 71.450 C 57.975 77.490, 60.897 81.800, 62.899 80.562 C 64.485 79.582, 64.228 77.126, 62.002 72 C 60.401 68.314, 60.360 67.951, 61.774 69.991 C 66.022 76.121, 70.947 80.524, 76.500 83.155 C 89.954 89.530, 87.133 84.064, 72 74.435 C 63.447 68.993, 57.320 63.996, 59.215 64.008 C 67.105 64.054, 82.647 68.771, 84.300 71.621 C 84.740 72.380, 85.927 73, 86.939 73 C 88.062 73, 88.724 73.666, 88.639 74.712 C 88.445 77.104, 92.079 77.613, 93.684 75.418 C 94.927 73.718, 95 73.734, 95 75.702 C 95 77.888, 96.635 79.007, 98.750 78.269 C 99.438 78.030, 100 77.187, 100 76.398 C 100 73.135, 113.789 78.921, 120.287 84.910 C 125.061 89.311, 126 89.759, 126 87.636 C 126 85.473, 120.905 80.920, 116 78.700 L 111.500 76.663 116.888 75.924 C 122.208 75.194, 126.358 72.965, 128.387 69.748 C 130.295 66.724, 128.251 66.817, 120.841 70.093 C 109.828 74.961, 98 75.405, 98 70.950 C 98 68.116, 95.304 67.415, 92.872 69.615 C 90.964 71.343, 90.733 71.356, 89.595 69.798 C 88.885 68.829, 87.102 68.159, 85.359 68.209 C 83.703 68.256, 81.547 67.846, 80.567 67.297 C 79.272 66.573, 82.165 66.143, 91.143 65.725 C 99.949 65.315, 106.374 64.376, 113.500 62.457 C 119 60.976, 126.200 59.404, 129.500 58.963 C 132.800 58.523, 136.993 57.698, 138.818 57.132 C 142.879 55.870, 156.951 48.395, 158.964 46.429 C 160.243 45.181, 160.117 45.002, 157.964 45.015 C 150.837 45.058, 138.572 49.441, 126 56.439 C 121.453 58.970, 107.514 62.956, 103.112 62.985 C 100.918 62.999, 101.035 62.753, 104.566 59.948 C 106.678 58.269, 111.578 55.235, 115.453 53.206 C 122.504 49.515, 131 42.007, 131 39.467 C 131 36.856, 129.232 37.085, 124.775 40.277 M 121.127 44.974 C 113.765 51.101, 112.450 53.005, 117.599 50.085 C 121.930 47.629, 124.556 45.521, 127.405 42.212 C 130.759 38.317, 127.295 39.841, 121.127 44.974 M 68.643 48.250 L 66.854 51.500 68.927 49.139 C 70.718 47.100, 71.625 45, 70.716 45 C 70.559 45, 69.626 46.462, 68.643 48.250 M 78.500 48.533 L 75.500 49.975 79 49.373 C 80.925 49.041, 83.175 48.386, 84 47.916 C 86.676 46.390, 81.823 46.935, 78.500 48.533 M 146.500 48.893 C 141.143 50.457, 128 56.484, 128 57.378 C 128 58.282, 138.813 55.614, 143.375 53.584 C 149.940 50.664, 155.941 46.988, 154 47.075 C 153.175 47.112, 149.800 47.930, 146.500 48.893 M 105.796 50.260 C 104.939 50.942, 103.433 52.850, 102.449 54.500 C 100.737 57.372, 100.826 57.342, 104.530 53.783 C 108.186 50.272, 109.148 47.593, 105.796 50.260 M 73.333 50.667 C 73.700 51.033, 74.300 51.033, 74.667 50.667 C 75.033 50.300, 74.733 50, 74 50 C 73.267 50, 72.967 50.300, 73.333 50.667 M 69.813 53.683 C 70.534 53.972, 71.397 53.936, 71.729 53.604 C 72.061 53.272, 71.471 53.036, 70.417 53.079 C 69.252 53.127, 69.015 53.364, 69.813 53.683 M 50 55 C 50 55.550, 50.450 56, 51 56 C 51.550 56, 52 55.550, 52 55 C 52 54.450, 51.550 54, 51 54 C 50.450 54, 50 54.450, 50 55 M 48 59 C 46.667 59.862, 46.667 59.973, 48 59.998 C 48.825 60.014, 50.519 60.300, 51.765 60.634 C 53.566 61.117, 53.903 60.910, 53.408 59.621 C 52.713 57.810, 50.274 57.530, 48 59 M 55 59 C 55 59.550, 55.450 60, 56 60 C 56.550 60, 57 59.550, 57 59 C 57 58.450, 56.550 58, 56 58 C 55.450 58, 55 58.450, 55 59 M 40.510 65.016 C 40.856 65.575, 41.557 65.774, 42.069 65.457 C 43.456 64.600, 43.198 64, 41.441 64 C 40.584 64, 40.165 64.457, 40.510 65.016 M 38 69 C 38 69.550, 38.450 70, 39 70 C 39.550 70, 40 69.550, 40 69 C 40 68.450, 39.550 68, 39 68 C 38.450 68, 38 68.450, 38 69 M 58.044 70.282 C 57.974 73.129, 61.225 79.813, 61.710 77.820 C 61.935 76.896, 61.213 74.421, 60.104 72.320 C 58.881 70.001, 58.071 69.200, 58.044 70.282 M 121.500 71.566 C 118.547 72.988, 117.319 73.978, 118.500 73.983 C 120.445 73.992, 127 70.546, 127 69.515 C 127 68.872, 127.412 68.718, 121.500 71.566 M 44.553 70.915 C 44.231 71.436, 44.394 72.125, 44.915 72.447 C 45.436 72.769, 46.125 72.606, 46.447 72.085 C 46.769 71.564, 46.606 70.875, 46.085 70.553 C 45.564 70.231, 44.875 70.394, 44.553 70.915 M 94 71 C 94 71.550, 94.450 72, 95 72 C 95.550 72, 96 71.550, 96 71 C 96 70.450, 95.550 70, 95 70 C 94.450 70, 94 70.450, 94 71 M 67.595 75.108 C 68.643 76.267, 70.711 78.079, 72.192 79.135 C 75.133 81.231, 82 84.318, 82 83.544 C 82 82.920, 67.314 73, 66.390 73 C 66.005 73, 66.547 73.949, 67.595 75.108 M 90 74 C 90 74.550, 90.450 75, 91 75 C 91.550 75, 92 74.550, 92 74 C 92 73.450, 91.550 73, 91 73 C 90.450 73, 90 73.450, 90 74 M 40.543 74.931 C 39.860 76.036, 41.437 77.230, 42.361 76.306 C 43.311 75.355, 43.134 74, 42.059 74 C 41.541 74, 40.859 74.419, 40.543 74.931 M 97 76.059 C 97 76.641, 97.450 76.840, 98 76.500 C 98.550 76.160, 99 75.684, 99 75.441 C 99 75.198, 98.550 75, 98 75 C 97.450 75, 97 75.477, 97 76.059 M 44.500 77 C 44.160 77.550, 44.610 78, 45.500 78 C 46.390 78, 46.840 77.550, 46.500 77 C 46.160 76.450, 45.710 76, 45.500 76 C 45.290 76, 44.840 76.450, 44.500 77" stroke="none" fill="#641a64" fill-rule="evenodd"/><path d="M 0 45.506 L 0 91.011 83.250 90.756 L 166.500 90.500 166.760 45.250 L 167.020 -0 83.510 -0 L 0 0 0 45.506 M 0.461 46 C 0.461 71.025, 0.590 81.263, 0.749 68.750 C 0.908 56.238, 0.908 35.763, 0.749 23.250 C 0.590 10.738, 0.461 20.975, 0.461 46 M 59.300 2.646 C 58.437 2.996, 58.375 3.855, 59.078 5.705 C 59.616 7.120, 59.931 8.346, 59.778 8.429 C 59.625 8.512, 58.164 9.018, 56.531 9.553 C 54.898 10.089, 52.873 11.758, 52.031 13.263 C 50.655 15.723, 50.656 16.279, 52.044 18.750 C 53.398 21.160, 54.201 21.505, 58.544 21.544 C 65.722 21.607, 65.776 21.561, 64.894 16.206 C 64.468 13.618, 64.092 9.363, 64.060 6.750 C 63.999 1.949, 63.043 1.124, 59.300 2.646 M 111.299 5.503 C 107.900 7.884, 106.603 13.114, 108.366 17.334 C 110.082 21.440, 112.547 23, 117.323 23 C 123.874 23, 127.834 16.789, 125.619 9.989 C 123.834 4.507, 116.156 2.101, 111.299 5.503 M 114.034 6.459 C 112.246 8.614, 113.166 18.595, 115.355 20.784 C 118.122 23.550, 120.450 21.229, 120.759 15.397 C 121.168 7.684, 117.292 2.533, 114.034 6.459 M 99.500 7.783 C 97.851 9.199, 97.553 10.508, 97.800 15.243 C 98.066 20.351, 98.365 21.053, 100.493 21.588 C 103.063 22.233, 105 21.499, 105 19.882 C 105 19.332, 104.547 19.162, 103.993 19.504 C 103.439 19.847, 102.715 19.420, 102.383 18.556 C 101.567 16.430, 102.879 9.807, 103.981 10.489 C 104.466 10.788, 105.144 10.575, 105.490 10.016 C 105.835 9.457, 105.416 9, 104.559 9 C 103.702 9, 103 8.325, 103 7.500 C 103 5.565, 101.989 5.647, 99.500 7.783 M 77.539 8.951 C 75.911 9.551, 75.626 10.467, 75.864 14.337 C 76.092 18.036, 75.825 19, 74.576 19 C 73.352 19, 73 17.884, 73 14 C 73 10.350, 72.617 9, 71.582 9 C 68.344 9, 67.360 10.096, 67.733 13.288 C 68.643 21.075, 68.422 20.854, 75.250 20.816 L 81.500 20.782 81.162 15.141 C 80.779 8.746, 80.302 7.931, 77.539 8.951 M 87.079 9.265 C 81.120 12.305, 82.782 21, 89.323 21 C 92.251 21, 95 19.567, 95 18.040 C 95 17.733, 93.537 17.485, 91.750 17.490 C 88.714 17.499, 88.480 17.253, 88.190 13.750 C 87.962 11.005, 88.266 10, 89.323 10 C 90.117 10, 91.002 10.900, 91.290 12 C 91.980 14.639, 95 14.619, 95 11.975 C 95 10.722, 94.023 9.579, 92.435 8.975 C 89.363 7.807, 90.004 7.773, 87.079 9.265 M 147 12 C 147 13.646, 147.518 14.065, 149.250 13.820 C 150.488 13.644, 151.500 12.825, 151.500 12 C 151.500 11.175, 150.488 10.356, 149.250 10.180 C 147.518 9.935, 147 10.354, 147 12 M 6.500 12.704 C 3.750 13.565, 2.061 14.470, 2.746 14.717 C 4.360 15.296, 8.392 28.537, 7.590 30.625 C 7.142 31.794, 7.408 32.057, 8.582 31.607 C 9.464 31.268, 11.262 30.721, 12.577 30.391 C 14.794 29.835, 14.860 29.638, 13.484 27.673 C 11.639 25.039, 11.605 24, 13.365 24 C 15.843 24, 20 19.927, 20 17.500 C 20 14.929, 15.746 10.956, 13.115 11.070 C 12.227 11.108, 9.250 11.844, 6.500 12.704 M 38 13 C 34.022 16.978, 36.924 24, 42.545 24 C 46.380 24, 50.353 19.569, 49.541 16.200 C 48.275 10.944, 41.840 9.160, 38 13 M 56.193 15.241 C 56.417 18.335, 56.973 19.573, 58.250 19.815 C 59.710 20.092, 60 19.389, 60 15.573 C 60 11.624, 59.719 11, 57.943 11 C 56.141 11, 55.923 11.528, 56.193 15.241 M 40.409 13.376 C 39.622 15.428, 41.744 21.688, 43.450 22.342 C 45.355 23.073, 45.921 19.977, 44.609 16.006 C 43.380 12.287, 41.322 10.998, 40.409 13.376 M 131.499 12.935 C 130.108 13.328, 129.395 14.527, 129.161 16.872 C 128.975 18.726, 128.256 22.432, 127.562 25.106 C 126.157 30.524, 126.327 31, 129.667 31 C 131.581 31, 132 30.473, 132 28.063 C 132 25.287, 132.185 25.156, 135.367 25.672 C 138.114 26.118, 139.034 25.789, 140.367 23.887 C 143.786 19.005, 141.239 12.221, 136.439 13.426 C 135.189 13.740, 134.016 13.631, 133.833 13.184 C 133.650 12.737, 132.600 12.625, 131.499 12.935 M 9 14.134 C 9 14.758, 9.527 17.026, 10.170 19.174 C 10.970 21.844, 11.841 22.986, 12.920 22.782 C 14.860 22.415, 15.516 17.832, 14.026 15.049 C 12.873 12.894, 9 12.189, 9 14.134 M 29.558 13.906 C 29.250 14.404, 28.211 14.624, 27.249 14.393 C 24.168 13.655, 22.794 15.328, 23.961 18.398 C 24.533 19.901, 25 22.459, 25 24.084 C 25 26.799, 25.222 26.985, 27.750 26.381 C 31.816 25.409, 32.167 25.025, 30.508 23.365 C 29.678 22.536, 29 20.484, 29 18.806 C 29 16.170, 29.210 15.929, 30.542 17.035 C 32.443 18.613, 34.571 16.931, 33.664 14.567 C 33.010 12.862, 30.457 12.451, 29.558 13.906 M 133.643 17.202 C 132.578 21.176, 132.920 24, 134.465 24 C 136.358 24, 138.214 20.513, 137.813 17.709 C 137.379 14.675, 134.416 14.315, 133.643 17.202 M 145.428 16.884 C 145.729 17.370, 145.356 19.821, 144.601 22.331 C 143.061 27.448, 143.278 28, 146.833 28 C 148.208 28, 149.080 27.747, 148.771 27.438 C 148.462 27.129, 148.778 24.429, 149.473 21.438 L 150.737 16 147.810 16 C 146.199 16, 145.128 16.398, 145.428 16.884 M 154.010 19.488 C 153.008 20.696, 153.088 21.097, 154.435 21.614 C 155.464 22.008, 156.618 21.538, 157.466 20.377 C 158.220 19.346, 159.154 18.820, 159.541 19.208 C 160.628 20.295, 157.731 29, 156.282 29 C 154.398 29, 154.721 26.269, 156.750 25.034 C 158.172 24.168, 157.844 24.018, 155 24.234 C 152.004 24.462, 151.500 24.860, 151.500 27 C 151.500 29.038, 152.054 29.560, 154.500 29.827 C 156.150 30.007, 157.928 30.569, 158.450 31.077 C 159.722 32.313, 163.281 32.263, 162.513 31.021 C 162.180 30.482, 162.467 28.173, 163.151 25.890 C 164.316 22.001, 164.249 21.620, 162.087 19.869 C 159.310 17.621, 155.701 17.450, 154.010 19.488 M 124.775 40.277 C 122.299 42.049, 116.299 47.212, 111.440 51.750 C 101.688 60.859, 98.109 62.798, 105.363 55.043 C 110.630 49.412, 111.060 48, 107.506 48 C 104.736 48, 100.791 52.702, 97.571 59.842 C 95.792 63.788, 95.462 64.010, 91.098 64.187 C 82.799 64.524, 70.621 63.939, 63.783 62.875 L 57.065 61.830 58.648 59.415 C 60.099 57.200, 60.882 57, 68.115 57 C 74.457 57, 76 56.707, 76 55.500 C 76 54.675, 75.250 54, 74.333 54 C 71.582 54, 73.610 52.818, 80.173 50.598 C 83.585 49.444, 86.542 47.976, 86.743 47.335 C 87.490 44.962, 82.995 44.922, 77.229 47.252 L 71.381 49.614 72.389 45.838 C 74.436 38.168, 70.801 40.340, 65.779 49.788 C 63.581 53.922, 63.366 54.053, 59.750 53.450 C 56.728 52.946, 56 53.133, 56 54.412 C 56 56.506, 55.416 56.416, 52.937 53.938 C 50.450 51.450, 48.619 51.841, 48.163 54.959 C 47.845 57.137, 47.506 57.233, 41.928 56.727 C 37.536 56.329, 33.051 54.760, 24.363 50.582 C 12.378 44.819, 8.087 43.693, 16.671 48.563 C 31.101 56.749, 38.812 63.521, 37.478 66.835 C 37.110 67.751, 36.594 69.022, 36.332 69.660 C 35.787 70.986, 39.470 72.446, 40.991 71.506 C 41.546 71.163, 42 71.310, 42 71.834 C 42 72.358, 41.325 73.045, 40.500 73.362 C 39.675 73.678, 39 74.605, 39 75.422 C 39 77.163, 45.416 80.479, 46.950 79.531 C 48.355 78.663, 48.297 75, 46.878 75 C 46.098 75, 46.132 74.546, 46.989 73.513 C 48.768 71.370, 47.477 69, 44.531 69 C 43.139 69, 42 68.550, 42 68 C 42 67.450, 42.481 67, 43.070 67 C 43.658 67, 43.995 65.987, 43.820 64.750 C 43.579 63.056, 42.838 62.500, 40.822 62.500 C 39.224 62.500, 36.908 61.319, 35.082 59.573 C 31.368 56.021, 31.658 55.424, 36.126 57.426 C 37.982 58.258, 42.744 59.866, 46.710 60.999 C 50.675 62.133, 54.272 63.610, 54.702 64.280 C 55.133 64.951, 56.041 68.178, 56.721 71.450 C 57.975 77.490, 60.897 81.800, 62.899 80.562 C 64.485 79.582, 64.228 77.126, 62.002 72 C 60.401 68.314, 60.360 67.951, 61.774 69.991 C 66.022 76.121, 70.947 80.524, 76.500 83.155 C 89.954 89.530, 87.133 84.064, 72 74.435 C 63.447 68.993, 57.320 63.996, 59.215 64.008 C 67.105 64.054, 82.647 68.771, 84.300 71.621 C 84.740 72.380, 85.927 73, 86.939 73 C 88.062 73, 88.724 73.666, 88.639 74.712 C 88.445 77.104, 92.079 77.613, 93.684 75.418 C 94.927 73.718, 95 73.734, 95 75.702 C 95 77.888, 96.635 79.007, 98.750 78.269 C 99.438 78.030, 100 77.187, 100 76.398 C 100 73.135, 113.789 78.921, 120.287 84.910 C 125.061 89.311, 126 89.759, 126 87.636 C 126 85.473, 120.905 80.920, 116 78.700 L 111.500 76.663 116.888 75.924 C 122.208 75.194, 126.358 72.965, 128.387 69.748 C 130.295 66.724, 128.251 66.817, 120.841 70.093 C 109.828 74.961, 98 75.405, 98 70.950 C 98 68.116, 95.304 67.415, 92.872 69.615 C 90.964 71.343, 90.733 71.356, 89.595 69.798 C 88.885 68.829, 87.102 68.159, 85.359 68.209 C 83.703 68.256, 81.547 67.846, 80.567 67.297 C 79.272 66.573, 82.165 66.143, 91.143 65.725 C 99.949 65.315, 106.374 64.376, 113.500 62.457 C 119 60.976, 126.200 59.404, 129.500 58.963 C 132.800 58.523, 136.993 57.698, 138.818 57.132 C 142.879 55.870, 156.951 48.395, 158.964 46.429 C 160.243 45.181, 160.117 45.002, 157.964 45.015 C 150.837 45.058, 138.572 49.441, 126 56.439 C 121.453 58.970, 107.514 62.956, 103.112 62.985 C 100.918 62.999, 101.035 62.753, 104.566 59.948 C 106.678 58.269, 111.578 55.235, 115.453 53.206 C 122.504 49.515, 131 42.007, 131 39.467 C 131 36.856, 129.232 37.085, 124.775 40.277 M 121.127 44.974 C 113.765 51.101, 112.450 53.005, 117.599 50.085 C 121.930 47.629, 124.556 45.521, 127.405 42.212 C 130.759 38.317, 127.295 39.841, 121.127 44.974 M 68.643 48.250 L 66.854 51.500 68.927 49.139 C 70.718 47.100, 71.625 45, 70.716 45 C 70.559 45, 69.626 46.462, 68.643 48.250 M 78.500 48.533 L 75.500 49.975 79 49.373 C 80.925 49.041, 83.175 48.386, 84 47.916 C 86.676 46.390, 81.823 46.935, 78.500 48.533 M 146.500 48.893 C 141.143 50.457, 128 56.484, 128 57.378 C 128 58.282, 138.813 55.614, 143.375 53.584 C 149.940 50.664, 155.941 46.988, 154 47.075 C 153.175 47.112, 149.800 47.930, 146.500 48.893 M 105.796 50.260 C 104.939 50.942, 103.433 52.850, 102.449 54.500 C 100.737 57.372, 100.826 57.342, 104.530 53.783 C 108.186 50.272, 109.148 47.593, 105.796 50.260 M 73.333 50.667 C 73.700 51.033, 74.300 51.033, 74.667 50.667 C 75.033 50.300, 74.733 50, 74 50 C 73.267 50, 72.967 50.300, 73.333 50.667 M 69.813 53.683 C 70.534 53.972, 71.397 53.936, 71.729 53.604 C 72.061 53.272, 71.471 53.036, 70.417 53.079 C 69.252 53.127, 69.015 53.364, 69.813 53.683 M 50 55 C 50 55.550, 50.450 56, 51 56 C 51.550 56, 52 55.550, 52 55 C 52 54.450, 51.550 54, 51 54 C 50.450 54, 50 54.450, 50 55 M 48 59 C 46.667 59.862, 46.667 59.973, 48 59.998 C 48.825 60.014, 50.519 60.300, 51.765 60.634 C 53.566 61.117, 53.903 60.910, 53.408 59.621 C 52.713 57.810, 50.274 57.530, 48 59 M 55 59 C 55 59.550, 55.450 60, 56 60 C 56.550 60, 57 59.550, 57 59 C 57 58.450, 56.550 58, 56 58 C 55.450 58, 55 58.450, 55 59 M 40.510 65.016 C 40.856 65.575, 41.557 65.774, 42.069 65.457 C 43.456 64.600, 43.198 64, 41.441 64 C 40.584 64, 40.165 64.457, 40.510 65.016 M 38 69 C 38 69.550, 38.450 70, 39 70 C 39.550 70, 40 69.550, 40 69 C 40 68.450, 39.550 68, 39 68 C 38.450 68, 38 68.450, 38 69 M 58.044 70.282 C 57.974 73.129, 61.225 79.813, 61.710 77.820 C 61.935 76.896, 61.213 74.421, 60.104 72.320 C 58.881 70.001, 58.071 69.200, 58.044 70.282 M 121.500 71.566 C 118.547 72.988, 117.319 73.978, 118.500 73.983 C 120.445 73.992, 127 70.546, 127 69.515 C 127 68.872, 127.412 68.718, 121.500 71.566 M 44.553 70.915 C 44.231 71.436, 44.394 72.125, 44.915 72.447 C 45.436 72.769, 46.125 72.606, 46.447 72.085 C 46.769 71.564, 46.606 70.875, 46.085 70.553 C 45.564 70.231, 44.875 70.394, 44.553 70.915 M 94 71 C 94 71.550, 94.450 72, 95 72 C 95.550 72, 96 71.550, 96 71 C 96 70.450, 95.550 70, 95 70 C 94.450 70, 94 70.450, 94 71 M 67.595 75.108 C 68.643 76.267, 70.711 78.079, 72.192 79.135 C 75.133 81.231, 82 84.318, 82 83.544 C 82 82.920, 67.314 73, 66.390 73 C 66.005 73, 66.547 73.949, 67.595 75.108 M 90 74 C 90 74.550, 90.450 75, 91 75 C 91.550 75, 92 74.550, 92 74 C 92 73.450, 91.550 73, 91 73 C 90.450 73, 90 73.450, 90 74 M 40.543 74.931 C 39.860 76.036, 41.437 77.230, 42.361 76.306 C 43.311 75.355, 43.134 74, 42.059 74 C 41.541 74, 40.859 74.419, 40.543 74.931 M 97 76.059 C 97 76.641, 97.450 76.840, 98 76.500 C 98.550 76.160, 99 75.684, 99 75.441 C 99 75.198, 98.550 75, 98 75 C 97.450 75, 97 75.477, 97 76.059 M 44.500 77 C 44.160 77.550, 44.610 78, 45.500 78 C 46.390 78, 46.840 77.550, 46.500 77 C 46.160 76.450, 45.710 76, 45.500 76 C 45.290 76, 44.840 76.450, 44.500 77" stroke="none" fill="#f5f5f6" fill-rule="evenodd"/></svg>